<svg width="18" height="18" viewBox="0 0 18 18" fill="none" xmlns="http://www.w3.org/2000/svg">
<path fill-rule="evenodd" clip-rule="evenodd" d="M1.17496 1.17569C1.63057 0.720081 2.36926 0.720081 2.82488 1.17569L8.99992 7.35073L15.175 1.17569C15.6306 0.720081 16.3693 0.720081 16.8249 1.17569C17.2805 1.6313 17.2805 2.37 16.8249 2.82561L10.6498 9.00065L16.8249 15.1757C17.2805 15.6313 17.2805 16.37 16.8249 16.8256C16.3693 17.2812 15.6306 17.2812 15.175 16.8256L8.99992 10.6506L2.82488 16.8256C2.36926 17.2812 1.63057 17.2812 1.17496 16.8256C0.719349 16.37 0.719349 15.6313 1.17496 15.1757L7.35 9.00065L1.17496 2.82561C0.719349 2.37 0.719349 1.6313 1.17496 1.17569Z" fill="#7E7E7E"/>
</svg>
